<svg width="180" height="48" viewBox="0 0 180 48" fill="none" xmlns="http://www.w3.org/2000/svg">
<path opacity="0.2" d="M103.196 10.3777V2.64115H83.5426C83.5114 1.73647 83.2619 0.301459 81.2341 0.301459H69.7229C68.2255 0.301459 67.4456 1.23734 67.4456 2.57876V6.16628H83.5426V3.7642H102.104V10.3777C96.7697 10.6585 92.5582 15.0883 92.5582 20.4852C92.5582 25.882 96.8009 30.2807 102.104 30.5926V34.5857H90.0938V11.2824C90.0938 9.06749 88.2844 7.25813 86.0695 7.25813H27.1093C24.8944 7.25813 23.0851 9.06749 23.0851 11.2824V34.5857H11.0747V30.5614C16.4092 30.2807 20.6206 25.8509 20.6206 20.454C20.6206 15.0571 16.378 10.6585 11.0747 10.3465V3.733H29.605V6.13508H45.7333V2.79713C45.7333 1.92364 45.5773 0.270264 43.4248 0.270264H31.9135C30.4161 0.270264 29.6362 1.20614 29.6362 2.54756V2.60995H9.98282V10.3465C4.64833 10.6273 0.43689 15.0571 0.43689 20.454C0.43689 25.8509 4.67952 30.2495 9.98282 30.5614V35.6775H23.0851V36.1455C23.0851 38.3604 24.8944 40.1697 27.1093 40.1697H86.0695C88.2844 40.1697 90.0938 38.3604 90.0938 36.1455V35.6775H103.227V30.5614C108.562 30.2807 112.773 25.8509 112.773 20.454C112.742 15.0883 108.499 10.6585 103.196 10.3777Z" fill="#C6C6C6" fill-opacity="0.5"/>
<path d="M174.135 0.301514H152.548C151.05 0.301514 150.239 1.23739 150.239 2.61001V6.22872H176.475V2.85957C176.475 1.98609 176.35 0.301514 174.135 0.301514ZM174.135 1.36217C174.978 1.36217 175.414 1.58054 175.414 2.85957V5.16806H151.331V2.61001C151.331 1.76772 151.737 1.36217 152.579 1.36217H174.135Z" fill="#C6C6C6" fill-opacity="0.5"/>
<path d="M146.745 43.1334C146.745 45.3483 148.523 47.1889 150.77 47.1889H175.976C178.783 47.1889 180 45.3483 180 43.1334V40.1074H146.745V43.1334ZM147.806 41.1681H178.939V43.1022C178.939 44.4436 178.44 46.097 175.976 46.097H150.77C149.147 46.097 147.806 44.7556 147.806 43.1022V41.1681Z" fill="#C6C6C6" fill-opacity="0.5"/>
<path d="M161.532 16.3986C161.314 16.3986 153.546 16.3986 153.234 16.3986C152.922 16.3986 152.828 16.3362 152.828 15.8059C152.828 15.2443 153.016 15.2131 153.234 15.2131C153.452 15.2131 161.251 15.2131 161.532 15.2131C161.813 15.2131 161.938 15.2755 161.938 15.8059C161.938 16.3362 161.751 16.3986 161.532 16.3986Z" fill="#C6C6C6" fill-opacity="0.5"/>
<path d="M167.834 34.5857C166.991 34.5857 166.305 34.3361 165.962 34.0865L165.868 34.0241L166.243 33.0259L166.399 33.1195C166.461 33.1507 167.085 33.525 167.834 33.525C168.302 33.525 168.676 33.4002 168.926 33.1507C169.113 32.9323 169.238 32.6515 169.238 32.3708C169.238 31.4661 168.395 31.1541 167.615 31.1541H166.929V30.1559H167.615C168.177 30.1559 168.988 29.8751 168.988 29.1576C168.988 28.5961 168.614 28.2841 167.927 28.2841C167.428 28.2841 166.929 28.5025 166.648 28.7208L166.492 28.8456L166.118 27.8786L166.212 27.8162C166.555 27.5666 167.272 27.2546 168.114 27.2546C169.581 27.2546 170.236 28.1593 170.236 29.0328C170.236 29.7191 169.893 30.2806 169.238 30.6238C170.017 30.9046 170.485 31.5909 170.485 32.402C170.485 33.4314 169.674 34.5857 167.834 34.5857Z" fill="#C6C6C6" fill-opacity="0.5"/>
<path d="M174.167 28.7834C174.135 28.7834 174.135 28.7834 174.104 28.7834C173.418 28.7522 172.981 28.2842 172.887 28.2218C172.732 28.0971 172.544 28.0035 172.388 28.0035C172.108 28.0035 171.889 28.2218 171.889 28.2218C171.702 28.4402 171.359 28.4402 171.141 28.253C170.922 28.0659 170.891 27.7227 171.109 27.5043C171.172 27.4419 171.608 26.974 172.326 26.9116C172.357 26.9116 172.388 26.9116 172.42 26.9116C172.856 26.9116 173.262 27.0988 173.667 27.4419C173.792 27.5667 173.948 27.6915 174.198 27.6915C174.385 27.6915 174.572 27.5979 174.759 27.4419C174.978 27.2548 175.321 27.2548 175.508 27.4731C175.695 27.6915 175.695 28.0347 175.477 28.2218C175.009 28.5962 174.603 28.7834 174.167 28.7834Z" fill="#C6C6C6" fill-opacity="0.5"/>
<path d="M83.5114 41.324H29.7922V44.6619C29.7922 45.5666 29.9482 47.1888 32.1007 47.1888H81.2029C82.7003 47.1888 83.5114 46.2529 83.5114 44.9115V41.324ZM82.482 42.3534V44.8803C82.482 45.7226 82.0452 46.0969 81.2653 46.0969H32.1319C31.1648 46.0969 30.8528 45.7226 30.8528 44.5995V42.3222L82.482 42.3534Z" fill="#C6C6C6" fill-opacity="0.5"/>
<path d="M146.745 38.9219H180V33.4626V11.5319C180 9.22342 178.222 7.41406 175.976 7.41406H150.77C148.555 7.41406 146.745 9.22342 146.745 11.4695V38.9219ZM147.806 11.4383C147.806 9.78494 149.116 8.44352 150.77 8.44352H175.976C176.631 8.44352 177.224 8.6619 177.723 9.03625L147.806 37.0501V11.4383ZM178.939 33.369V37.83H148.648L178.503 9.87853C178.783 10.3465 178.939 10.8456 178.939 11.4383V33.369Z" fill="#C6C6C6" fill-opacity="0.5"/>
<path opacity="0.2" d="M174.135 0.301514H152.548C151.05 0.301514 150.239 1.23739 150.239 2.61001V6.22872H176.475V2.85957C176.475 1.98609 176.35 0.301514 174.135 0.301514Z" fill="#C6C6C6" fill-opacity="0.5"/>
<path opacity="0.2" d="M146.745 43.1334C146.745 45.3483 148.523 47.1889 150.77 47.1889H175.976C178.783 47.1889 180 45.3483 180 43.1334V40.1074H146.745V43.1334Z" fill="#C6C6C6" fill-opacity="0.5"/>
<path opacity="0.2" d="M83.5114 41.324H29.7922V44.6619C29.7922 45.5666 29.9482 47.1888 32.1007 47.1888H81.2029C82.7003 47.1888 83.5114 46.2529 83.5114 44.9115V41.324Z" fill="#C6C6C6" fill-opacity="0.5"/>
<path opacity="0.2" d="M146.745 38.9219H180V33.4626V11.5319C180 9.22342 178.222 7.41406 175.976 7.41406H150.77C148.555 7.41406 146.745 9.22342 146.745 11.4695V38.9219Z" fill="#C6C6C6" fill-opacity="0.5"/>
<path d="M145.761 21.2271H116.749C116.312 21.2271 116.25 20.884 116.25 20.4784C116.25 20.0729 116.312 19.7297 116.749 19.7297H145.761V21.2271Z" fill="#C6C6C6" fill-opacity="0.5"/>
<path d="M11.324 25.4765C11.324 25.3206 11.324 23.2616 11.324 20.9843C13.6013 20.9843 15.6914 20.9843 15.8162 20.9843C16.0658 20.9843 16.3153 20.8908 16.3153 20.2356C16.3153 19.5805 16.1906 19.4869 15.8162 19.4869C15.6602 19.4869 13.6013 19.4869 11.324 19.4869C11.324 17.2096 11.324 15.1195 11.324 14.9947C11.324 14.7452 11.2616 14.4956 10.5753 14.4956C9.8578 14.4956 9.8266 14.5892 9.8266 14.9947C9.8266 15.1819 9.8266 17.2096 9.8266 19.4869C7.5493 19.4869 5.45918 19.4869 5.3344 19.4869C5.08483 19.4869 4.83527 19.5493 4.83527 20.2356C4.83527 20.9531 4.92885 20.9843 5.3344 20.9843C5.52157 20.9843 7.5493 20.9843 9.8266 20.9843C9.8266 23.2616 9.8266 25.3518 9.8266 25.4765C9.8266 25.7261 9.95138 25.9757 10.5753 25.9757C11.2616 25.9757 11.324 25.8509 11.324 25.4765Z" fill="#C6C6C6" fill-opacity="0.5"/>
<path d="M107.875 19.7988C107.501 19.7988 97.7053 19.7988 97.4246 19.7988C97.175 19.7988 96.9254 19.83 96.9254 20.5475C96.9254 21.2338 97.019 21.2962 97.4246 21.2962C97.7989 21.2962 107.594 21.2962 107.875 21.2962C108.156 21.2962 108.405 21.2026 108.374 20.5475C108.374 19.8924 108.25 19.7988 107.875 19.7988Z" fill="#C6C6C6" fill-opacity="0.5"/>
<path d="M113.21 20.454C113.21 14.8075 108.78 10.1905 103.227 9.90978V2.64115H83.5737C83.5425 1.73647 83.2929 0.301459 81.2652 0.301459H69.7539C68.2565 0.301459 67.4766 1.23734 67.4766 2.57876V6.16628H83.5737V3.7642H102.135V9.87858C96.5199 10.1281 92.0589 14.7763 92.0589 20.454C92.0589 26.1316 96.5199 30.7486 102.135 31.0294V34.5857H90.1248V11.2824C90.1248 9.06749 88.3154 7.25813 86.1005 7.25813H27.1404C24.9255 7.25813 23.1161 9.06749 23.1161 11.2824V34.5857H11.1057V31.0294C16.6898 30.7486 21.1508 26.1316 21.1508 20.454C21.1508 14.7763 16.6898 10.1593 11.1057 9.87858V3.733H29.6361V6.13508H45.7643V2.79713C45.7643 1.92364 45.6083 0.270264 43.4558 0.270264H31.9445C30.4471 0.270264 29.6672 1.20614 29.6672 2.54756V2.60995H10.0139V9.87858C4.42981 10.1593 0 14.8075 0 20.454C0 26.1004 4.42981 30.7174 10.0139 31.0294V35.6775H23.1161V36.1455C23.1161 38.3604 24.9255 40.1697 27.1404 40.1697H86.1005C88.3154 40.1697 90.1248 38.3604 90.1248 36.1455V35.6775H103.258V30.9982C108.811 30.6862 113.21 26.0692 113.21 20.454ZM82.513 5.10562H68.5373V2.57876C68.5373 1.73647 68.9428 1.36212 69.7539 1.36212H81.234C82.0763 1.36212 82.513 1.58049 82.513 2.85952V5.10562ZM30.7279 2.57876C30.7279 1.73647 31.1335 1.36212 31.9445 1.36212H43.4246C44.2669 1.36212 44.7036 1.58049 44.7036 2.85952V5.13681H30.7279V2.57876ZM0.935875 20.454C0.935875 15.1507 5.2721 10.8145 10.5754 10.8145C15.8787 10.8145 20.2149 15.1507 20.2149 20.454C20.2149 25.7573 15.8787 30.0935 10.5754 30.0935C5.2721 30.0935 0.935875 25.7573 0.935875 20.454ZM88.9706 36.1455C88.9706 37.7365 87.6603 39.0467 86.0693 39.0467H27.1092C25.5182 39.0467 24.208 37.7365 24.208 36.1455V11.2824C24.208 9.69141 25.5182 8.38118 27.1092 8.38118H86.0693C87.6603 8.38118 88.9706 9.69141 88.9706 11.2824V36.1455ZM102.634 30.0935C97.331 30.0935 92.9948 25.7573 92.9948 20.454C92.9948 15.1507 97.331 10.8145 102.634 10.8145C107.938 10.8145 112.274 15.1507 112.274 20.454C112.274 25.7573 107.938 30.0935 102.634 30.0935Z" fill="#C6C6C6" fill-opacity="0.5"/>
<path d="M98.7145 4.53467C98.0951 4.53467 97.7855 4.84636 97.4758 5.15804L77.6564 25.1061C76.7274 26.0412 76.7274 26.6645 77.6564 27.5996L97.4758 47.5477C97.7855 47.8593 98.0951 48.171 98.7145 48.171C99.3339 48.171 99.6435 47.8593 99.9532 47.5477L119.773 27.5996C120.392 26.9762 120.702 26.0412 119.773 25.1061L99.9532 5.15804C99.6435 4.84636 99.3339 4.53467 98.7145 4.53467Z" fill="#C6C6C6"/>
<path d="M98.7145 6.09311L118.534 26.3529L98.7145 46.3009L78.5855 26.3529L98.7145 6.09311ZM98.7145 4.53467C98.0951 4.53467 97.7855 4.84636 97.4758 5.15804L77.6564 25.1061C76.7274 26.0412 76.7274 26.6645 77.6564 27.5996L97.4758 47.5477C97.7855 47.8593 98.0951 48.171 98.7145 48.171C99.3339 48.171 99.6435 47.8593 99.9532 47.5477L119.773 27.5996C120.392 26.9762 120.702 26.0412 119.773 25.1061L99.9532 5.15804C99.6435 4.84636 99.3339 4.53467 98.7145 4.53467Z" fill="#ED192E"/>
<path d="M95.308 31.3401H93.1403L87.8758 22.9245V31.6518H86.3274V20.7427H88.4951L93.7597 29.1583V20.7427H95.308V31.3401Z" fill="#ED192E"/>
<path d="M102.431 20.7427L98.4048 31.3401H96.8564L100.882 20.7427H102.431Z" fill="#ED192E"/>
<path d="M104.289 26.0413C104.289 31.0283 108.934 30.0932 110.482 29.7815V31.34C108.934 31.6517 102.74 32.5867 102.74 26.0413C102.74 20.7426 108.005 19.8075 111.102 21.366L110.482 22.6127C108.005 21.6776 104.289 21.9893 104.289 26.0413Z" fill="#ED192E"/>
</svg>
