<svg width="180" height="48" viewBox="0 0 180 48" fill="none" xmlns="http://www.w3.org/2000/svg">
<path opacity="0.2" d="M103.196 10.6482V2.91166H83.5426C83.5114 2.00698 83.2619 0.571967 81.2341 0.571967H69.7229C68.2255 0.571967 67.4456 1.50784 67.4456 2.84926V6.43679H83.5426V4.0347H102.104V10.6482C96.7697 10.929 92.5582 15.3588 92.5582 20.7557C92.5582 26.1526 96.8009 30.5512 102.104 30.8631V34.8562H90.0938V11.5529C90.0938 9.338 88.2844 7.52864 86.0695 7.52864H27.1093C24.8944 7.52864 23.0851 9.338 23.0851 11.5529V34.8562H11.0747V30.8319C16.4092 30.5512 20.6206 26.1214 20.6206 20.7245C20.6206 15.3276 16.378 10.929 11.0747 10.617V4.00351H29.605V6.40559H45.7333V3.06763C45.7333 2.19415 45.5773 0.540771 43.4248 0.540771H31.9135C30.4161 0.540771 29.6362 1.47665 29.6362 2.81807V2.88046H9.98282V10.617C4.64833 10.8978 0.43689 15.3276 0.43689 20.7245C0.43689 26.1214 4.67952 30.52 9.98282 30.8319V35.9481H23.0851V36.416C23.0851 38.6309 24.8944 40.4403 27.1093 40.4403H86.0695C88.2844 40.4403 90.0938 38.6309 90.0938 36.416V35.9481H103.227V30.8319C108.562 30.5512 112.773 26.1214 112.773 20.7245C112.742 15.3588 108.499 10.929 103.196 10.6482Z" fill="#C6C6C6"/>
<path d="M52.4039 34.5424C52.3242 34.5424 52.2331 34.5184 52.142 34.4704C51.9369 34.3504 51.8344 34.2544 52.0622 33.2944L54.3403 24.9424V24.9304C54.3517 24.8704 54.3859 24.7264 54.2834 24.5944C54.215 24.5104 54.1239 24.4744 53.9986 24.4744H51.4357C51.0485 24.4744 50.8093 24.4024 50.7067 24.2464C50.6042 24.0904 50.6156 23.7904 50.7523 23.3704L54.2264 14.5264C54.3176 14.3104 54.5112 14.0464 54.9213 14.0464H61.2317C61.4823 14.0464 61.7328 14.1424 61.8581 14.2984C61.9948 14.4424 62.0404 14.5864 62.029 14.7544V14.7664V14.7784C62.029 14.8384 62.0062 14.9944 61.8126 15.3064L61.2203 16.2064L59.3522 19.0864C59.318 19.1464 59.2155 19.3264 59.2953 19.4944C59.3522 19.6144 59.4661 19.6624 59.637 19.6624H62.5758C62.9175 19.6624 63.2364 19.8304 63.3389 20.0704L63.3503 20.0824C63.4984 20.3704 63.3731 20.7184 63.1795 20.9584L62.4391 21.9304C59.2611 26.0464 53.2127 33.8704 53.0304 34.1104C52.7912 34.3984 52.5862 34.5424 52.4039 34.5424Z" fill="#FF9800"/>
<path d="M51.4286 33.416L53.7068 25.064C53.7295 24.956 53.7181 24.896 53.5928 24.896H51.03C50.1643 24.896 49.777 24.536 50.1301 23.468L53.6156 14.624C53.7751 14.252 54.0826 14 54.5155 14H60.8259C61.1106 14 61.4296 14.108 61.6232 14.324C61.7941 14.516 61.8738 14.72 61.851 14.972C61.851 15.176 61.7143 15.44 61.6004 15.632L61.0081 16.544L59.1401 19.424C59.0603 19.556 59.0717 19.628 59.2426 19.628H62.1814C62.58 19.628 63.0015 19.832 63.1496 20.18C63.3318 20.54 63.2179 20.996 62.9559 21.32L62.2155 22.292C62.2155 22.292 52.8069 34.484 52.7955 34.484C52.3627 34.988 51.9982 35.072 51.6223 34.868C51.235 34.652 51.2122 34.328 51.4286 33.416ZM52.488 33.788L54.2535 31.484L61.646 21.776L62.375 20.816C62.3978 20.78 62.432 20.72 62.4433 20.66C62.4547 20.564 62.4092 20.468 62.3294 20.432C62.2953 20.42 62.2497 20.408 62.1928 20.408H57.8301C57.7276 20.408 57.6707 20.288 57.7276 20.204L60.9853 15.176C61.0309 15.092 61.0879 14.996 61.0423 14.9C60.9967 14.804 60.917 14.792 60.8373 14.792H54.618C54.3902 14.792 54.2991 14.936 54.2649 15.032L54.151 15.308L51.1325 22.964L50.8363 23.756C50.8135 23.852 50.8021 24.104 51.0869 24.104H54.618C54.6977 24.104 54.7547 24.188 54.7319 24.272L52.8752 30.716L52.0437 33.644C51.964 33.932 51.9868 34.028 52.0893 34.076C52.2146 34.136 52.3627 33.956 52.488 33.788Z" fill="#C6C6C6"/>
<path d="M174.135 0.572021H152.548C151.05 0.572021 150.239 1.5079 150.239 2.88051V6.49923H176.475V3.13008C176.475 2.2566 176.35 0.572021 174.135 0.572021ZM174.135 1.63268C174.978 1.63268 175.414 1.85105 175.414 3.13008V5.43857H151.331V2.88051C151.331 2.03823 151.737 1.63268 152.579 1.63268H174.135Z" fill="#C6C6C6"/>
<path d="M146.745 43.4039C146.745 45.6188 148.523 47.4594 150.77 47.4594H175.976C178.783 47.4594 180 45.6188 180 43.4039V40.3779H146.745V43.4039ZM147.806 41.4386H178.939V43.3727C178.939 44.7141 178.44 46.3675 175.976 46.3675H150.77C149.147 46.3675 147.806 45.0261 147.806 43.3727V41.4386Z" fill="#C6C6C6"/>
<path d="M161.532 16.6691C161.314 16.6691 153.546 16.6691 153.234 16.6691C152.922 16.6691 152.828 16.6067 152.828 16.0764C152.828 15.5148 153.016 15.4836 153.234 15.4836C153.452 15.4836 161.251 15.4836 161.532 15.4836C161.813 15.4836 161.938 15.546 161.938 16.0764C161.938 16.6067 161.751 16.6691 161.532 16.6691Z" fill="#C6C6C6"/>
<path d="M167.834 34.8562C166.991 34.8562 166.305 34.6066 165.962 34.357L165.868 34.2946L166.243 33.2964L166.399 33.39C166.461 33.4212 167.085 33.7955 167.834 33.7955C168.302 33.7955 168.676 33.6707 168.926 33.4212C169.113 33.2028 169.238 32.922 169.238 32.6413C169.238 31.7366 168.395 31.4246 167.615 31.4246H166.929V30.4264H167.615C168.177 30.4264 168.988 30.1456 168.988 29.4281C168.988 28.8666 168.614 28.5546 167.927 28.5546C167.428 28.5546 166.929 28.773 166.648 28.9914L166.492 29.1161L166.118 28.1491L166.212 28.0867C166.555 27.8371 167.272 27.5251 168.115 27.5251C169.581 27.5251 170.236 28.4298 170.236 29.3033C170.236 29.9896 169.893 30.5511 169.238 30.8943C170.017 31.1751 170.485 31.8614 170.485 32.6725C170.485 33.7019 169.674 34.8562 167.834 34.8562Z" fill="#C6C6C6"/>
<path d="M174.167 29.0539C174.135 29.0539 174.135 29.0539 174.104 29.0539C173.418 29.0227 172.981 28.5547 172.887 28.4924C172.732 28.3676 172.544 28.274 172.388 28.274C172.108 28.274 171.889 28.4924 171.889 28.4924C171.702 28.7107 171.359 28.7107 171.141 28.5236C170.922 28.3364 170.891 27.9932 171.109 27.7748C171.172 27.7125 171.608 27.2445 172.326 27.1821C172.357 27.1821 172.388 27.1821 172.42 27.1821C172.856 27.1821 173.262 27.3693 173.667 27.7125C173.792 27.8372 173.948 27.962 174.198 27.962C174.385 27.962 174.572 27.8684 174.759 27.7125C174.978 27.5253 175.321 27.5253 175.508 27.7437C175.695 27.962 175.695 28.3052 175.477 28.4924C175.009 28.8667 174.603 29.0539 174.167 29.0539Z" fill="#C6C6C6"/>
<path d="M83.5115 41.5945H29.7922V44.9324C29.7922 45.8371 29.9482 47.4593 32.1007 47.4593H81.203C82.7004 47.4593 83.5115 46.5234 83.5115 45.182V41.5945ZM82.482 42.6239V45.1508C82.482 45.9931 82.0453 46.3674 81.2654 46.3674H32.1319C31.1649 46.3674 30.8529 45.9931 30.8529 44.87V42.5927L82.482 42.6239Z" fill="#C6C6C6"/>
<path d="M146.745 39.1924H180V33.7331V11.8024C180 9.49393 178.222 7.68457 175.976 7.68457H150.77C148.555 7.68457 146.745 9.49393 146.745 11.74V39.1924ZM147.806 11.7088C147.806 10.0555 149.116 8.71403 150.77 8.71403H175.976C176.631 8.71403 177.224 8.9324 177.723 9.30675L147.806 37.3206V11.7088ZM178.939 33.6395V38.1005H148.648L178.503 10.149C178.783 10.617 178.939 11.1161 178.939 11.7088V33.6395Z" fill="#C6C6C6"/>
<path opacity="0.2" d="M174.135 0.572021H152.548C151.05 0.572021 150.239 1.5079 150.239 2.88051V6.49923H176.475V3.13008C176.475 2.2566 176.35 0.572021 174.135 0.572021Z" fill="#C6C6C6"/>
<path opacity="0.2" d="M146.745 43.4039C146.745 45.6188 148.523 47.4594 150.77 47.4594H175.976C178.783 47.4594 180 45.6188 180 43.4039V40.3779H146.745V43.4039Z" fill="#C6C6C6"/>
<path opacity="0.2" d="M83.5115 41.5945H29.7922V44.9324C29.7922 45.8371 29.9482 47.4593 32.1007 47.4593H81.203C82.7004 47.4593 83.5115 46.5234 83.5115 45.182V41.5945Z" fill="#C6C6C6"/>
<path opacity="0.2" d="M146.745 39.1924H180V33.7331V11.8024C180 9.49393 178.222 7.68457 175.976 7.68457H150.77C148.555 7.68457 146.745 9.49393 146.745 11.74V39.1924Z" fill="#C6C6C6"/>
<path d="M146.777 21.5667H117.765C117.328 21.5667 117.265 21.2236 117.265 20.818C117.265 20.4125 117.328 20.0693 117.765 20.0693H146.777V21.5667Z" fill="#ED192E"/>
<path d="M11.3239 25.7471C11.3239 25.5911 11.3239 23.5321 11.3239 21.2549C13.6012 21.2549 15.6914 21.2549 15.8161 21.2549C16.0657 21.2549 16.3153 21.1613 16.3153 20.5061C16.3153 19.851 16.1905 19.7574 15.8161 19.7574C15.6602 19.7574 13.6012 19.7574 11.3239 19.7574C11.3239 17.4802 11.3239 15.39 11.3239 15.2652C11.3239 15.0157 11.2615 14.7661 10.5752 14.7661C9.85774 14.7661 9.82654 14.8597 9.82654 15.2652C9.82654 15.4524 9.82654 17.4802 9.82654 19.7574C7.54924 19.7574 5.45912 19.7574 5.33434 19.7574C5.08477 19.7574 4.83521 19.8198 4.83521 20.5061C4.83521 21.2237 4.92879 21.2549 5.33434 21.2549C5.52151 21.2549 7.54924 21.2549 9.82654 21.2549C9.82654 23.5321 9.82654 25.6223 9.82654 25.7471C9.82654 25.9966 9.95132 26.2462 10.5752 26.2462C11.2615 26.2462 11.3239 26.1214 11.3239 25.7471Z" fill="#C6C6C6"/>
<path d="M107.875 20.0693C107.501 20.0693 97.7053 20.0693 97.4246 20.0693C97.175 20.0693 96.9254 20.1005 96.9254 20.818C96.9254 21.5043 97.019 21.5667 97.4246 21.5667C97.7989 21.5667 107.594 21.5667 107.875 21.5667C108.156 21.5667 108.405 21.4731 108.374 20.818C108.374 20.1629 108.25 20.0693 107.875 20.0693Z" fill="#C6C6C6"/>
<path d="M113.21 20.7245C113.21 15.078 108.78 10.4611 103.227 10.1803V2.91166H83.5737C83.5425 2.00698 83.2929 0.571967 81.2652 0.571967H69.7539C68.2565 0.571967 67.4766 1.50784 67.4766 2.84926V6.43679H83.5737V4.0347H102.135V10.1491C96.5199 10.3987 92.0589 15.0468 92.0589 20.7245C92.0589 26.4021 96.5199 31.0191 102.135 31.2999V34.8562H90.1248V11.5529C90.1248 9.338 88.3154 7.52864 86.1005 7.52864H27.1404C24.9255 7.52864 23.1161 9.338 23.1161 11.5529V34.8562H11.1057V31.2999C16.6898 31.0191 21.1508 26.4021 21.1508 20.7245C21.1508 15.0468 16.6898 10.4299 11.1057 10.1491V4.00351H29.6361V6.40559H45.7643V3.06763C45.7643 2.19415 45.6083 0.540771 43.4558 0.540771H31.9445C30.4471 0.540771 29.6672 1.47665 29.6672 2.81807V2.88046H10.0139V10.1491C4.42981 10.4299 0 15.078 0 20.7245C0 26.3709 4.42981 30.9879 10.0139 31.2999V35.9481H23.1161V36.416C23.1161 38.6309 24.9255 40.4403 27.1404 40.4403H86.1005C88.3154 40.4403 90.1248 38.6309 90.1248 36.416V35.9481H103.258V31.2687C108.811 30.9567 113.21 26.3397 113.21 20.7245ZM82.513 5.37613H68.5373V2.84926C68.5373 2.00698 68.9428 1.63263 69.7539 1.63263H81.234C82.0763 1.63263 82.513 1.851 82.513 3.13003V5.37613ZM30.7279 2.84926C30.7279 2.00698 31.1335 1.63263 31.9445 1.63263H43.4246C44.2669 1.63263 44.7036 1.851 44.7036 3.13003V5.40732H30.7279V2.84926ZM0.935875 20.7245C0.935875 15.4212 5.2721 11.085 10.5754 11.085C15.8787 11.085 20.2149 15.4212 20.2149 20.7245C20.2149 26.0278 15.8787 30.364 10.5754 30.364C5.2721 30.364 0.935875 26.0278 0.935875 20.7245ZM88.9706 36.416C88.9706 38.007 87.6603 39.3172 86.0693 39.3172H27.1092C25.5182 39.3172 24.208 38.007 24.208 36.416V11.5529C24.208 9.96192 25.5182 8.65169 27.1092 8.65169H86.0693C87.6603 8.65169 88.9706 9.96192 88.9706 11.5529V36.416ZM102.634 30.364C97.331 30.364 92.9948 26.0278 92.9948 20.7245C92.9948 15.4212 97.331 11.085 102.634 11.085C107.938 11.085 112.274 15.4212 112.274 20.7245C112.274 26.0278 107.938 30.364 102.634 30.364Z" fill="#C6C6C6"/>
<path d="M163.042 17.8187L174.023 36.7917H152.06L163.042 17.8187ZM163.042 12L147 39.7083H179.083L163.042 12ZM164.5 32.4167H161.583V35.3333H164.5V32.4167ZM164.5 23.6667L161.583 23.6667V29.5H164.5V23.6667Z" fill="black" fill-opacity="0.6"/>
</svg>
