<svg width="180" height="48" viewBox="0 0 180 48" fill="none" xmlns="http://www.w3.org/2000/svg">
<path opacity="0.2" d="M103.196 10.6482V2.91166H83.5426C83.5114 2.00698 83.2619 0.571967 81.2341 0.571967H69.7229C68.2255 0.571967 67.4456 1.50784 67.4456 2.84926V6.43679H83.5426V4.0347H102.104V10.6482C96.7697 10.929 92.5582 15.3588 92.5582 20.7557C92.5582 26.1526 96.8009 30.5512 102.104 30.8631V34.8562H90.0938V11.5529C90.0938 9.338 88.2844 7.52864 86.0695 7.52864H27.1093C24.8944 7.52864 23.0851 9.338 23.0851 11.5529V34.8562H11.0747V30.8319C16.4092 30.5512 20.6206 26.1214 20.6206 20.7245C20.6206 15.3276 16.378 10.929 11.0747 10.617V4.00351H29.605V6.40559H45.7333V3.06763C45.7333 2.19415 45.5773 0.540771 43.4248 0.540771H31.9135C30.4161 0.540771 29.6362 1.47665 29.6362 2.81807V2.88046H9.98282V10.617C4.64833 10.8978 0.43689 15.3276 0.43689 20.7245C0.43689 26.1214 4.67952 30.52 9.98282 30.8319V35.9481H23.0851V36.416C23.0851 38.6309 24.8944 40.4403 27.1093 40.4403H86.0695C88.2844 40.4403 90.0938 38.6309 90.0938 36.416V35.9481H103.227V30.8319C108.562 30.5512 112.773 26.1214 112.773 20.7245C112.742 15.3588 108.499 10.929 103.196 10.6482Z" fill="#C6C6C6"/>
<path d="M136.138 18.093C135.948 18.2904 135.828 18.416 135.742 18.5057C135.432 18.8287 135.432 19.4029 135.742 19.7259C135.897 19.8874 136.103 19.9772 136.327 19.9772C136.551 19.9772 136.757 19.8874 136.912 19.7259L140.872 15.5987C140.872 15.5987 140.872 15.5987 140.889 15.5808C141.182 15.2398 141.182 14.7194 140.889 14.3785L136.93 10.2512C136.775 10.0897 136.568 10 136.344 10C136.12 10 135.914 10.0897 135.759 10.2512C135.449 10.5742 135.449 11.1485 135.759 11.4715C136.912 12.6917 138.531 14.3426 139.03 14.845C139.116 14.9347 139.116 15.0604 139.03 15.1501C138.169 16.0114 136.62 17.6085 136.138 18.093Z" fill="#1976D2"/>
<path d="M129.138 18.093C128.948 18.2904 128.828 18.416 128.742 18.5057C128.432 18.8287 128.432 19.4029 128.742 19.7259C128.897 19.8874 129.103 19.9772 129.327 19.9772C129.551 19.9772 129.757 19.8874 129.912 19.7259L133.872 15.5987C133.872 15.5987 133.872 15.5987 133.889 15.5808C134.182 15.2398 134.182 14.7194 133.889 14.3785L129.93 10.2512C129.775 10.0897 129.568 10 129.344 10C129.12 10 128.914 10.0897 128.759 10.2512C128.449 10.5742 128.449 11.1485 128.759 11.4715C129.912 12.6917 131.531 14.3426 132.03 14.845C132.116 14.9347 132.116 15.0604 132.03 15.1501C131.152 16.0114 129.62 17.6085 129.138 18.093Z" fill="#1976D2"/>
<path d="M122.628 18.093C122.439 18.2904 122.319 18.416 122.232 18.5057C121.923 18.8287 121.923 19.4029 122.232 19.7259C122.387 19.8874 122.594 19.9772 122.818 19.9772C123.042 19.9772 123.248 19.8874 123.403 19.7259L127.363 15.5987C127.363 15.5987 127.363 15.5987 127.38 15.5808C127.673 15.2398 127.673 14.7194 127.38 14.3785L123.42 10.2512C123.265 10.0897 123.059 10 122.835 10C122.611 10 122.405 10.0897 122.25 10.2512C121.94 10.5742 121.94 11.1485 122.25 11.4715C123.403 12.6917 125.022 14.3426 125.521 14.845C125.607 14.9347 125.607 15.0604 125.521 15.1501C124.643 16.0114 123.11 17.6085 122.628 18.093Z" fill="#1976D2"/>
<path d="M52.4039 34.5424C52.3242 34.5424 52.2331 34.5184 52.142 34.4704C51.9369 34.3504 51.8344 34.2544 52.0622 33.2944L54.3403 24.9424V24.9304C54.3517 24.8704 54.3859 24.7264 54.2834 24.5944C54.215 24.5104 54.1239 24.4744 53.9986 24.4744H51.4357C51.0485 24.4744 50.8093 24.4024 50.7067 24.2464C50.6042 24.0904 50.6156 23.7904 50.7523 23.3704L54.2264 14.5264C54.3176 14.3104 54.5112 14.0464 54.9213 14.0464H61.2317C61.4823 14.0464 61.7328 14.1424 61.8581 14.2984C61.9948 14.4424 62.0404 14.5864 62.029 14.7544V14.7664V14.7784C62.029 14.8384 62.0062 14.9944 61.8126 15.3064L61.2203 16.2064L59.3522 19.0864C59.318 19.1464 59.2155 19.3264 59.2953 19.4944C59.3522 19.6144 59.4661 19.6624 59.637 19.6624H62.5758C62.9175 19.6624 63.2364 19.8304 63.3389 20.0704L63.3503 20.0824C63.4984 20.3704 63.3731 20.7184 63.1795 20.9584L62.4391 21.9304C59.2611 26.0464 53.2127 33.8704 53.0304 34.1104C52.7912 34.3984 52.5862 34.5424 52.4039 34.5424Z" fill="#FF9800"/>
<path d="M51.8344 33.2224L54.1125 24.8704C54.1353 24.7624 54.1239 24.7024 53.9986 24.7024H51.4357C50.57 24.7024 50.1828 24.3424 50.5359 23.2744L54.0214 14.4304C54.1809 14.0584 54.4884 13.8064 54.9212 13.8064H61.2316C61.5164 13.8064 61.8353 13.9144 62.029 14.1304C62.1998 14.3224 62.2796 14.5264 62.2568 14.7784C62.2568 14.9824 62.1201 15.2464 62.0062 15.4384L61.4139 16.3504L59.5458 19.2304C59.4661 19.3624 59.4775 19.4344 59.6483 19.4344H62.5871C62.9858 19.4344 63.4072 19.6384 63.5553 19.9864C63.7376 20.3464 63.6237 20.8024 63.3617 21.1264L62.6213 22.0984C62.6213 22.0984 53.2127 34.2904 53.2013 34.2904C52.7684 34.7944 52.4039 34.8784 52.028 34.6744C51.6408 34.4584 51.618 34.1344 51.8344 33.2224ZM52.8937 33.5944L54.6593 31.2904L62.0518 21.5824L62.7808 20.6224C62.8035 20.5864 62.8377 20.5264 62.8491 20.4664C62.8605 20.3704 62.8149 20.2744 62.7352 20.2384C62.701 20.2264 62.6555 20.2144 62.5985 20.2144H58.2359C58.1334 20.2144 58.0764 20.0944 58.1334 20.0104L61.3911 14.9824C61.4367 14.8984 61.4936 14.8024 61.4481 14.7064C61.4025 14.6104 61.3228 14.5984 61.243 14.5984H55.0238C54.7959 14.5984 54.7048 14.7424 54.6707 14.8384L54.5567 15.1144L51.5382 22.7704L51.2421 23.5624C51.2193 23.6584 51.2079 23.9104 51.4927 23.9104H55.0238C55.1035 23.9104 55.1604 23.9944 55.1377 24.0784L53.281 30.5224L52.4495 33.4504C52.3698 33.7384 52.3925 33.8344 52.495 33.8824C52.6203 33.9424 52.7684 33.7624 52.8937 33.5944Z" fill="#C6C6C6"/>
<path d="M174.135 0.572021H152.548C151.05 0.572021 150.239 1.5079 150.239 2.88051V6.49923H176.475V3.13008C176.475 2.2566 176.35 0.572021 174.135 0.572021ZM174.135 1.63268C174.978 1.63268 175.414 1.85105 175.414 3.13008V5.43857H151.331V2.88051C151.331 2.03823 151.737 1.63268 152.579 1.63268H174.135Z" fill="#C6C6C6"/>
<path d="M146.745 43.4039C146.745 45.6188 148.523 47.4594 150.77 47.4594H175.976C178.783 47.4594 180 45.6188 180 43.4039V40.3779H146.745V43.4039ZM147.806 41.4386H178.939V43.3727C178.939 44.7141 178.44 46.3675 175.976 46.3675H150.77C149.147 46.3675 147.806 45.0261 147.806 43.3727V41.4386Z" fill="#C6C6C6"/>
<path d="M161.532 16.6691C161.314 16.6691 153.546 16.6691 153.234 16.6691C152.922 16.6691 152.828 16.6067 152.828 16.0764C152.828 15.5148 153.016 15.4836 153.234 15.4836C153.452 15.4836 161.251 15.4836 161.532 15.4836C161.813 15.4836 161.938 15.546 161.938 16.0764C161.938 16.6067 161.751 16.6691 161.532 16.6691Z" fill="#C6C6C6"/>
<path d="M167.834 34.8562C166.991 34.8562 166.305 34.6066 165.962 34.357L165.868 34.2946L166.243 33.2964L166.399 33.39C166.461 33.4212 167.085 33.7955 167.834 33.7955C168.302 33.7955 168.676 33.6707 168.926 33.4212C169.113 33.2028 169.238 32.922 169.238 32.6413C169.238 31.7366 168.395 31.4246 167.615 31.4246H166.929V30.4264H167.615C168.177 30.4264 168.988 30.1456 168.988 29.4281C168.988 28.8666 168.614 28.5546 167.927 28.5546C167.428 28.5546 166.929 28.773 166.648 28.9914L166.492 29.1161L166.118 28.1491L166.212 28.0867C166.555 27.8371 167.272 27.5251 168.115 27.5251C169.581 27.5251 170.236 28.4298 170.236 29.3033C170.236 29.9896 169.893 30.5511 169.238 30.8943C170.017 31.1751 170.485 31.8614 170.485 32.6725C170.485 33.7019 169.674 34.8562 167.834 34.8562Z" fill="#C6C6C6"/>
<path d="M174.167 29.0539C174.135 29.0539 174.135 29.0539 174.104 29.0539C173.418 29.0227 172.981 28.5547 172.887 28.4924C172.732 28.3676 172.544 28.274 172.388 28.274C172.108 28.274 171.889 28.4924 171.889 28.4924C171.702 28.7107 171.359 28.7107 171.141 28.5236C170.922 28.3364 170.891 27.9932 171.109 27.7748C171.172 27.7125 171.608 27.2445 172.326 27.1821C172.357 27.1821 172.388 27.1821 172.42 27.1821C172.856 27.1821 173.262 27.3693 173.667 27.7125C173.792 27.8372 173.948 27.962 174.198 27.962C174.385 27.962 174.572 27.8684 174.759 27.7125C174.978 27.5253 175.321 27.5253 175.508 27.7437C175.695 27.962 175.695 28.3052 175.477 28.4924C175.009 28.8667 174.603 29.0539 174.167 29.0539Z" fill="#C6C6C6"/>
<path d="M83.5115 41.5945H29.7922V44.9324C29.7922 45.8371 29.9482 47.4593 32.1007 47.4593H81.203C82.7004 47.4593 83.5115 46.5234 83.5115 45.182V41.5945ZM82.482 42.6239V45.1508C82.482 45.9931 82.0453 46.3674 81.2654 46.3674H32.1319C31.1649 46.3674 30.8529 45.9931 30.8529 44.87V42.5927L82.482 42.6239Z" fill="#C6C6C6"/>
<path d="M146.745 39.1924H180V33.7331V11.8024C180 9.49393 178.222 7.68457 175.976 7.68457H150.77C148.555 7.68457 146.745 9.49393 146.745 11.74V39.1924ZM147.806 11.7088C147.806 10.0555 149.116 8.71403 150.77 8.71403H175.976C176.631 8.71403 177.224 8.9324 177.723 9.30675L147.806 37.3206V11.7088ZM178.939 33.6395V38.1005H148.648L178.503 10.149C178.783 10.617 178.939 11.1161 178.939 11.7088V33.6395Z" fill="#C6C6C6"/>
<path opacity="0.2" d="M174.135 0.572021H152.548C151.05 0.572021 150.239 1.5079 150.239 2.88051V6.49923H176.475V3.13008C176.475 2.2566 176.35 0.572021 174.135 0.572021Z" fill="#C6C6C6"/>
<path opacity="0.2" d="M146.745 43.4039C146.745 45.6188 148.523 47.4594 150.77 47.4594H175.976C178.783 47.4594 180 45.6188 180 43.4039V40.3779H146.745V43.4039Z" fill="#C6C6C6"/>
<path opacity="0.2" d="M83.5115 41.5945H29.7922V44.9324C29.7922 45.8371 29.9482 47.4593 32.1007 47.4593H81.203C82.7004 47.4593 83.5115 46.5234 83.5115 45.182V41.5945Z" fill="#C6C6C6"/>
<path opacity="0.2" d="M146.745 39.1924H180V33.7331V11.8024C180 9.49393 178.222 7.68457 175.976 7.68457H150.77C148.555 7.68457 146.745 9.49393 146.745 11.74V39.1924Z" fill="#C6C6C6"/>
<path d="M146.511 23.0693H117.499C117.062 23.0693 117 22.3818 117 21.5693C117 20.7568 117.062 20.0693 117.499 20.0693H146.511V23.0693Z" fill="#1976D2"/>
<path d="M11.3239 25.7471C11.3239 25.5911 11.3239 23.5321 11.3239 21.2549C13.6012 21.2549 15.6914 21.2549 15.8161 21.2549C16.0657 21.2549 16.3153 21.1613 16.3153 20.5061C16.3153 19.851 16.1905 19.7574 15.8161 19.7574C15.6602 19.7574 13.6012 19.7574 11.3239 19.7574C11.3239 17.4802 11.3239 15.39 11.3239 15.2652C11.3239 15.0157 11.2615 14.7661 10.5752 14.7661C9.85774 14.7661 9.82654 14.8597 9.82654 15.2652C9.82654 15.4524 9.82654 17.4802 9.82654 19.7574C7.54924 19.7574 5.45912 19.7574 5.33434 19.7574C5.08477 19.7574 4.83521 19.8198 4.83521 20.5061C4.83521 21.2237 4.92879 21.2549 5.33434 21.2549C5.52151 21.2549 7.54924 21.2549 9.82654 21.2549C9.82654 23.5321 9.82654 25.6223 9.82654 25.7471C9.82654 25.9966 9.95132 26.2462 10.5752 26.2462C11.2615 26.2462 11.3239 26.1214 11.3239 25.7471Z" fill="#C6C6C6"/>
<path d="M107.875 20.0693C107.501 20.0693 97.7053 20.0693 97.4246 20.0693C97.175 20.0693 96.9254 20.1005 96.9254 20.818C96.9254 21.5043 97.019 21.5667 97.4246 21.5667C97.7989 21.5667 107.594 21.5667 107.875 21.5667C108.156 21.5667 108.405 21.4731 108.374 20.818C108.374 20.1629 108.25 20.0693 107.875 20.0693Z" fill="#C6C6C6"/>
<path d="M113.21 20.7245C113.21 15.078 108.78 10.4611 103.227 10.1803V2.91166H83.5737C83.5425 2.00698 83.2929 0.571967 81.2652 0.571967H69.7539C68.2565 0.571967 67.4766 1.50784 67.4766 2.84926V6.43679H83.5737V4.0347H102.135V10.1491C96.5199 10.3987 92.0589 15.0468 92.0589 20.7245C92.0589 26.4021 96.5199 31.0191 102.135 31.2999V34.8562H90.1248V11.5529C90.1248 9.338 88.3154 7.52864 86.1005 7.52864H27.1404C24.9255 7.52864 23.1161 9.338 23.1161 11.5529V34.8562H11.1057V31.2999C16.6898 31.0191 21.1508 26.4021 21.1508 20.7245C21.1508 15.0468 16.6898 10.4299 11.1057 10.1491V4.00351H29.6361V6.40559H45.7643V3.06763C45.7643 2.19415 45.6083 0.540771 43.4558 0.540771H31.9445C30.4471 0.540771 29.6672 1.47665 29.6672 2.81807V2.88046H10.0139V10.1491C4.42981 10.4299 0 15.078 0 20.7245C0 26.3709 4.42981 30.9879 10.0139 31.2999V35.9481H23.1161V36.416C23.1161 38.6309 24.9255 40.4403 27.1404 40.4403H86.1005C88.3154 40.4403 90.1248 38.6309 90.1248 36.416V35.9481H103.258V31.2687C108.811 30.9567 113.21 26.3397 113.21 20.7245ZM82.513 5.37613H68.5373V2.84926C68.5373 2.00698 68.9428 1.63263 69.7539 1.63263H81.234C82.0763 1.63263 82.513 1.851 82.513 3.13003V5.37613ZM30.7279 2.84926C30.7279 2.00698 31.1335 1.63263 31.9445 1.63263H43.4246C44.2669 1.63263 44.7036 1.851 44.7036 3.13003V5.40732H30.7279V2.84926ZM0.935875 20.7245C0.935875 15.4212 5.2721 11.085 10.5754 11.085C15.8787 11.085 20.2149 15.4212 20.2149 20.7245C20.2149 26.0278 15.8787 30.364 10.5754 30.364C5.2721 30.364 0.935875 26.0278 0.935875 20.7245ZM88.9706 36.416C88.9706 38.007 87.6603 39.3172 86.0693 39.3172H27.1092C25.5182 39.3172 24.208 38.007 24.208 36.416V11.5529C24.208 9.96192 25.5182 8.65169 27.1092 8.65169H86.0693C87.6603 8.65169 88.9706 9.96192 88.9706 11.5529V36.416ZM102.634 30.364C97.331 30.364 92.9948 26.0278 92.9948 20.7245C92.9948 15.4212 97.331 11.085 102.634 11.085C107.938 11.085 112.274 15.4212 112.274 20.7245C112.274 26.0278 107.938 30.364 102.634 30.364Z" fill="#C6C6C6"/>
</svg>
