<svg width="180" height="47" viewBox="0 0 180 47" fill="none" xmlns="http://www.w3.org/2000/svg">
<path opacity="0.2" d="M102.991 4.46828C102.991 2.24979 101.211 0.4375 99.0249 0.4375H27.3871C25.1699 0.4375 23.4211 2.24979 23.4211 4.46828V42.9013C23.4211 45.1198 25.2012 46.9321 27.3871 46.9321H99.0249C101.804 46.9321 102.991 45.1198 102.991 42.9013V4.46828Z" fill="#C6C6C6"/>
<path opacity="0.2" d="M178.938 40.8701V42.8074C178.938 44.151 178.439 45.807 175.972 45.807H150.77C149.178 45.807 147.804 44.4634 147.804 42.8074V40.8701H178.938Z" fill="#C6C6C6"/>
<path opacity="0.2" d="M175.972 8.12402C177.564 8.12402 178.938 9.46762 178.938 11.1237V33.0899V37.5581H147.804V11.1549C147.804 9.49886 149.115 8.15527 150.77 8.15527L175.972 8.12402Z" fill="#C6C6C6"/>
<path opacity="0.2" d="M174.16 0H152.55C151.051 0 150.239 0.937392 150.239 2.31223V5.93681H176.471V2.5622C176.471 1.6873 176.346 0 174.16 0Z" fill="#C6C6C6"/>
<path d="M102.991 4.49929C102.991 2.2808 101.211 0.468506 99.0249 0.468506H27.3871C25.1699 0.468506 23.4211 2.2808 23.4211 4.49929V42.9323C23.4211 45.1508 25.2012 46.9631 27.3871 46.9631H99.0249C101.804 46.9631 102.991 45.1508 102.991 42.9323V4.49929ZM101.96 42.9323C101.96 44.2759 101.461 45.9007 99.0249 45.9007H27.3871C25.7945 45.9007 24.4517 44.5571 24.4517 42.9323L24.4829 4.49929C24.4829 2.87448 25.7945 1.53088 27.4184 1.53088H99.0249C99.7744 1.53088 100.555 1.8121 101.086 2.40578C101.617 2.99946 101.96 3.71813 101.96 4.49929V42.9323Z" fill="#C6C6C6"/>
<path d="M147 25H103.744C103.093 25 103 24.3125 103 23.5C103 22.6875 103.093 22 103.744 22H147V25Z" fill="#1976D2"/>
<path d="M174.16 0H152.55C151.051 0 150.239 0.937392 150.239 2.31223V5.93681H176.471V2.5622C176.471 1.6873 176.346 0 174.16 0ZM174.16 1.06238C175.003 1.06238 175.441 1.2811 175.441 2.5622V4.87443H151.363V2.31223C151.363 1.46858 151.769 1.06238 152.613 1.06238H174.16Z" fill="#C6C6C6"/>
<path d="M146.742 42.8388C146.742 45.0573 148.522 46.9008 150.77 46.9008H175.971C178.782 46.9008 180 45.0885 180 42.8388V39.8079H146.742V42.8388ZM147.803 40.8702H178.938V42.8075C178.938 44.1511 178.438 45.8072 175.971 45.8072H150.77C149.178 45.8072 147.803 44.4636 147.803 42.8075V40.8702Z" fill="#C6C6C6"/>
<path d="M175.971 7.09277H150.77C148.553 7.09277 146.742 8.90506 146.742 11.1548V38.6516H180V33.1835V11.2173C180 8.90506 178.189 7.09277 175.971 7.09277ZM150.77 8.15515H175.971C176.627 8.15515 177.221 8.37388 177.72 8.74883L147.803 36.7768V11.1548C147.803 9.49874 149.115 8.15515 150.77 8.15515ZM178.938 33.0898V37.558H148.647L178.501 9.59248C178.782 10.0299 178.938 10.5611 178.938 11.1548V33.0898Z" fill="#C6C6C6"/>
<path d="M161.513 16.0919C161.294 16.0919 153.518 16.0919 153.206 16.0919C152.894 16.0919 152.8 16.0294 152.8 15.4982C152.8 14.9358 152.987 14.9045 153.206 14.9045C153.425 14.9045 161.2 14.9045 161.513 14.9045C161.794 14.9045 161.919 14.967 161.919 15.4982C161.919 16.0294 161.731 16.0919 161.513 16.0919Z" fill="#C6C6C6"/>
<path d="M19.9862 10.1553C19.4553 10.1553 19.0493 9.74906 19.0493 9.24911V4.62465C19.0493 4.09346 19.4553 3.71851 19.9862 3.71851C20.517 3.71851 20.923 4.12471 20.923 4.62465V9.24911C20.8918 9.7803 20.4546 10.1553 19.9862 10.1553Z" fill="#FFCC16"/>
<path d="M5.49618 24.5908H0.936849C0.405968 24.5908 0 24.1846 0 23.6847C0 23.1848 0.437196 22.7473 0.936849 22.7473H5.49618C6.02706 22.7473 6.43303 23.1535 6.43303 23.6847C6.43303 24.1846 6.02706 24.5908 5.49618 24.5908Z" fill="#FFCC16"/>
<path d="M9.71196 13.6234C9.4309 13.6234 9.21231 13.5297 9.05616 13.3422L5.83965 10.0926C5.46491 9.71763 5.46491 9.1552 5.83965 8.78024C6.21439 8.40528 6.7765 8.40528 7.15124 8.78024L10.3678 11.9986C10.7425 12.3736 10.7425 12.936 10.3678 13.311C10.1492 13.5297 9.93056 13.6234 9.71196 13.6234Z" fill="#FFCC16"/>
<path d="M6.55794 38.4018C6.27689 38.4018 6.05829 38.308 5.90215 38.1205C5.52741 37.7456 5.52741 37.1832 5.90215 36.8082L9.05621 33.6836C9.43095 33.3086 9.99306 33.3086 10.3678 33.6836C10.7425 34.0585 10.7425 34.621 10.3678 34.9959L7.21374 38.1518C7.02637 38.3393 6.80777 38.4018 6.55794 38.4018Z" fill="#FFCC16"/>
<path d="M19.7674 36.027C13.0533 36.027 7.58838 30.5588 7.58838 23.8409C7.58838 17.1229 13.0533 11.6548 19.7674 11.6548C20.2671 11.6548 20.9541 11.7173 21.1415 11.7173C21.1727 11.7173 21.2039 11.7485 21.2039 11.7798V14.6857C21.2039 14.7169 21.1727 14.7482 21.1415 14.7482C20.9229 14.7169 20.1422 14.6232 19.7674 14.6232C14.6772 14.6232 10.5238 18.779 10.5238 23.8721C10.5238 28.9653 14.6772 33.121 19.7674 33.121C20.1109 33.121 20.9229 33.0273 21.1415 32.9961C21.1727 32.9961 21.2039 33.0273 21.2039 33.0585V35.902C21.2039 35.9332 21.1727 35.9645 21.1415 35.9645C20.9541 35.9957 20.1422 36.027 19.7674 36.027Z" fill="#FFCC16"/>
<path d="M19.9862 43.6514C19.4553 43.6514 19.0493 43.2452 19.0493 42.714V38.2145C19.0493 37.6833 19.4553 37.2771 19.9862 37.2771C20.517 37.2771 20.923 37.6833 20.923 38.2145V42.714C20.8918 43.2452 20.4858 43.6514 19.9862 43.6514Z" fill="#FFCC16"/>
<path d="M168.383 34.8085C167.571 34.8085 166.853 34.5585 166.509 34.3085L166.416 34.246L166.759 33.2462L166.915 33.3399C167.165 33.4961 167.727 33.7461 168.352 33.7461C168.82 33.7461 169.195 33.6211 169.445 33.3711C169.632 33.1524 169.757 32.8712 169.757 32.59C169.757 31.6838 168.914 31.3714 168.133 31.3714H167.446V30.3715H168.133C168.695 30.3715 169.507 30.0903 169.507 29.3716C169.507 28.8092 169.132 28.4967 168.477 28.4967C167.977 28.4967 167.477 28.7154 167.196 28.9342L167.04 29.0591L166.665 28.0905L166.759 28.028C167.134 27.778 167.821 27.4656 168.664 27.4656C170.132 27.4656 170.787 28.3717 170.787 29.2466C170.787 29.934 170.444 30.4965 169.788 30.8402C170.569 31.1214 171.037 31.8088 171.037 32.6212C171.037 33.6524 170.225 34.8085 168.383 34.8085Z" fill="#C6C6C6"/>
<path d="M174.691 28.9966C174.66 28.9966 174.629 28.9966 174.597 28.9966C173.879 28.9654 173.442 28.4654 173.38 28.4342C173.223 28.3092 173.036 28.2155 172.88 28.2155C172.599 28.2155 172.411 28.4029 172.38 28.4342C172.193 28.6217 171.849 28.6529 171.631 28.4654C171.537 28.3717 171.475 28.2467 171.443 28.0905C171.443 27.9342 171.475 27.8093 171.568 27.7155C171.662 27.6218 172.099 27.1843 172.786 27.1531C172.817 27.1531 172.849 27.1531 172.88 27.1531C173.317 27.1531 173.723 27.3406 174.098 27.6843C174.223 27.8093 174.379 27.9342 174.629 27.9342C174.816 27.9342 175.003 27.8405 175.191 27.6843C175.409 27.4968 175.753 27.4968 175.94 27.7155C176.128 27.9342 176.128 28.2779 175.909 28.4654C175.565 28.8091 175.16 28.9966 174.691 28.9966Z" fill="#C6C6C6"/>
<path d="M48.8411 22.1849H32.9459C32.0403 22.1849 31.2908 21.435 31.2908 20.4976V9.62383C31.2908 8.68644 32.0403 7.93652 32.9459 7.93652H48.8411C49.7467 7.93652 50.4962 8.68644 50.4962 9.62383V20.4976C50.4962 21.4975 49.8404 22.1849 48.8411 22.1849ZM32.9459 9.03015C32.6336 9.03015 32.3838 9.28012 32.3838 9.62383V20.4976C32.3838 20.81 32.6336 21.0912 32.9459 21.0912H48.8411C49.1221 21.0912 49.4032 21.0288 49.4032 20.4976V9.62383C49.4032 9.31136 49.1534 9.03015 48.8411 9.03015H32.9459Z" fill="#C6C6C6"/>
<path d="M93.4663 22.1849H77.5711C76.6655 22.1849 75.916 21.435 75.916 20.4976V9.62383C75.916 8.68644 76.6655 7.93652 77.5711 7.93652H93.4663C94.3719 7.93652 95.1214 8.68644 95.1214 9.62383V20.4976C95.1214 21.4975 94.4969 22.1849 93.4663 22.1849ZM77.5711 9.03015C77.2588 9.03015 77.009 9.28012 77.009 9.62383V20.4976C77.009 20.81 77.2588 21.0912 77.5711 21.0912H93.4663C93.7474 21.0912 94.0284 21.0288 94.0284 20.4976V9.62383C94.0284 9.31136 93.7786 9.03015 93.4663 9.03015H77.5711Z" fill="#C6C6C6"/>
<path d="M71.1692 22.1849H55.274C54.3684 22.1849 53.6189 21.435 53.6189 20.4976V9.62383C53.6189 8.68644 54.3684 7.93652 55.274 7.93652H71.1692C72.0748 7.93652 72.8243 8.68644 72.8243 9.62383V20.4976C72.8243 21.4975 72.1685 22.1849 71.1692 22.1849ZM55.2428 9.03015C54.9305 9.03015 54.6807 9.28012 54.6807 9.62383V20.4976C54.6807 20.81 54.9305 21.0912 55.2428 21.0912H71.138C71.419 21.0912 71.7001 21.0288 71.7001 20.4976V9.62383C71.7001 9.31136 71.4503 9.03015 71.138 9.03015H55.2428Z" fill="#C6C6C6"/>
<path d="M48.8411 39.4952H32.9459C32.0403 39.4952 31.2908 38.7453 31.2908 37.8079V26.9341C31.2908 25.9967 32.0403 25.2468 32.9459 25.2468H48.8411C49.7467 25.2468 50.4962 25.9967 50.4962 26.9341V37.8079C50.4962 38.839 49.8404 39.4952 48.8411 39.4952ZM32.9459 26.3404C32.6336 26.3404 32.3838 26.5904 32.3838 26.9341V37.8079C32.3838 38.1203 32.6336 38.4015 32.9459 38.4015H48.8411C49.1221 38.4015 49.4032 38.3391 49.4032 37.8079V26.9341C49.4032 26.6217 49.1534 26.3404 48.8411 26.3404H32.9459Z" fill="#C6C6C6"/>
<path d="M93.4663 39.4952H77.5711C76.6655 39.4952 75.916 38.7453 75.916 37.8079V26.9341C75.916 25.9967 76.6655 25.2468 77.5711 25.2468H93.4663C94.3719 25.2468 95.1214 25.9967 95.1214 26.9341V37.8079C95.1214 38.839 94.4969 39.4952 93.4663 39.4952ZM77.5711 26.3404C77.2588 26.3404 77.009 26.5904 77.009 26.9341V37.8079C77.009 38.1203 77.2588 38.4015 77.5711 38.4015H93.4663C93.7474 38.4015 94.0284 38.3391 94.0284 37.8079V26.9341C94.0284 26.6217 93.7786 26.3404 93.4663 26.3404H77.5711Z" fill="#C6C6C6"/>
<path d="M71.1692 39.4952H55.274C54.3684 39.4952 53.6189 38.7453 53.6189 37.8079V26.9341C53.6189 25.9967 54.3684 25.2468 55.274 25.2468H71.1692C72.0748 25.2468 72.8243 25.9967 72.8243 26.9341V37.8079C72.8243 38.839 72.1685 39.4952 71.1692 39.4952ZM55.2428 26.3404C54.9305 26.3404 54.6807 26.5904 54.6807 26.9341V37.8079C54.6807 38.1203 54.9305 38.4015 55.2428 38.4015H71.138C71.419 38.4015 71.7001 38.3391 71.7001 37.8079V26.9341C71.7001 26.6217 71.4503 26.3404 71.138 26.3404H55.2428Z" fill="#C6C6C6"/>
<path d="M115.628 17.093C115.439 17.2904 115.319 17.416 115.232 17.5057C114.923 17.8287 114.923 18.4029 115.232 18.7259C115.387 18.8874 115.594 18.9772 115.818 18.9772C116.042 18.9772 116.248 18.8874 116.403 18.7259L120.363 14.5987C120.363 14.5987 120.363 14.5987 120.38 14.5808C120.673 14.2398 120.673 13.7194 120.38 13.3785L116.42 9.25122C116.265 9.08972 116.059 9 115.835 9C115.611 9 115.405 9.08972 115.25 9.25122C114.94 9.57423 114.94 10.1485 115.25 10.4715C116.403 11.6917 118.022 13.3426 118.521 13.845C118.607 13.9347 118.607 14.0604 118.521 14.1501C117.643 15.0114 116.11 16.6085 115.628 17.093Z" fill="#1976D2"/>
<path d="M122.138 17.093C121.948 17.2904 121.828 17.416 121.742 17.5057C121.432 17.8287 121.432 18.4029 121.742 18.7259C121.897 18.8874 122.103 18.9772 122.327 18.9772C122.551 18.9772 122.757 18.8874 122.912 18.7259L126.872 14.5987C126.872 14.5987 126.872 14.5987 126.889 14.5808C127.182 14.2398 127.182 13.7194 126.889 13.3785L122.93 9.25122C122.775 9.08972 122.568 9 122.344 9C122.12 9 121.914 9.08972 121.759 9.25122C121.449 9.57423 121.449 10.1485 121.759 10.4715C122.912 11.6917 124.531 13.3426 125.03 13.845C125.116 13.9347 125.116 14.0604 125.03 14.1501C124.152 15.0114 122.62 16.6085 122.138 17.093Z" fill="#1976D2"/>
<path d="M129.138 17.093C128.948 17.2904 128.828 17.416 128.742 17.5057C128.432 17.8287 128.432 18.4029 128.742 18.7259C128.897 18.8874 129.103 18.9772 129.327 18.9772C129.551 18.9772 129.757 18.8874 129.912 18.7259L133.872 14.5987C133.872 14.5987 133.872 14.5987 133.889 14.5808C134.182 14.2398 134.182 13.7194 133.889 13.3785L129.93 9.25122C129.775 9.08972 129.568 9 129.344 9C129.12 9 128.914 9.08972 128.759 9.25122C128.449 9.57423 128.449 10.1485 128.759 10.4715C129.912 11.6917 131.531 13.3426 132.03 13.845C132.116 13.9347 132.116 14.0604 132.03 14.1501C131.169 15.0114 129.62 16.6085 129.138 17.093Z" fill="#1976D2"/>
</svg>
