<svg width="180" height="50" viewBox="0 0 180 50" fill="none" xmlns="http://www.w3.org/2000/svg">
<path d="M102.991 4.49696C102.991 2.27975 101.211 0.468506 99.0249 0.468506H27.3871C25.1699 0.468506 23.4211 2.27975 23.4211 4.49696V42.9078C23.4211 45.125 25.2012 46.9362 27.3871 46.9362H99.0249C101.804 46.9362 102.991 45.125 102.991 42.9078V4.49696ZM101.96 42.9078C101.96 44.2506 101.461 45.8745 99.0249 45.8745H27.3871C25.7945 45.8745 24.4517 44.5317 24.4517 42.9078L24.4829 4.49696C24.4829 2.87309 25.7945 1.53027 27.4184 1.53027H99.0249C99.7744 1.53027 100.555 1.81132 101.086 2.40466C101.617 2.998 101.96 3.71625 101.96 4.49696V42.9078Z" fill="#C6C6C6"/>
<path d="M146.742 22.9529H102.991V24.5143H146.742V22.9529Z" fill="#C6C6C6"/>
<path d="M174.16 0H152.55C151.051 0 150.239 0.93685 150.239 2.3109V5.93338H176.471V2.56072C176.471 1.68633 176.346 0 174.16 0ZM174.16 1.06176C175.003 1.06176 175.441 1.28036 175.441 2.56072V4.87162H151.363V2.3109C151.363 1.46773 151.769 1.06176 152.613 1.06176H174.16Z" fill="#C6C6C6"/>
<path d="M146.742 42.8141C146.742 45.0313 148.522 46.8737 150.77 46.8737H175.971C178.782 46.8737 180 45.0625 180 42.8141V39.7849H146.742V42.8141ZM147.803 40.8467H178.938V42.7828C178.938 44.1256 178.438 45.7808 175.971 45.7808H150.77C149.178 45.7808 147.803 44.4379 147.803 42.7828V40.8467Z" fill="#C6C6C6"/>
<path d="M175.971 7.08887H150.77C148.553 7.08887 146.742 8.90011 146.742 11.1485V38.6295H180V33.1645V11.211C180 8.90011 178.189 7.08887 175.971 7.08887ZM150.77 8.15063H175.971C176.627 8.15063 177.221 8.36923 177.72 8.74397L147.803 36.7558V11.1485C147.803 9.49345 149.115 8.15063 150.77 8.15063ZM178.938 33.0708V37.5365H148.647L178.501 9.58713C178.782 10.0243 178.938 10.5552 178.938 11.1485V33.0708Z" fill="#C6C6C6"/>
<path d="M161.513 16.0827C161.294 16.0827 153.519 16.0827 153.206 16.0827C152.894 16.0827 152.8 16.0202 152.8 15.4893C152.8 14.9272 152.988 14.896 153.206 14.896C153.425 14.896 161.201 14.896 161.513 14.896C161.794 14.896 161.919 14.9585 161.919 15.4893C161.919 16.0202 161.732 16.0827 161.513 16.0827Z" fill="#C6C6C6"/>
<path d="M19.9862 10.1491C19.4553 10.1491 19.0493 9.74313 19.0493 9.24347V4.62169C19.0493 4.0908 19.4553 3.71606 19.9862 3.71606C20.517 3.71606 20.923 4.12203 20.923 4.62169V9.24347C20.8918 9.77436 20.4546 10.1491 19.9862 10.1491Z" fill="#C6C6C6"/>
<path d="M5.49618 24.5766H0.936849C0.405968 24.5766 0 24.1706 0 23.671C0 23.1713 0.437196 22.7341 0.936849 22.7341H5.49618C6.02706 22.7341 6.43303 23.1401 6.43303 23.671C6.43303 24.1706 6.02706 24.5766 5.49618 24.5766Z" fill="#C6C6C6"/>
<path d="M9.71196 13.6156C9.4309 13.6156 9.21231 13.5219 9.05616 13.3345L5.83965 10.0868C5.46491 9.71205 5.46491 9.14994 5.83965 8.7752C6.21439 8.40046 6.7765 8.40046 7.15124 8.7752L10.3678 11.9917C10.7425 12.3664 10.7425 12.9286 10.3678 13.3033C10.1492 13.5219 9.93056 13.6156 9.71196 13.6156Z" fill="#C6C6C6"/>
<path d="M6.55794 38.3796C6.27689 38.3796 6.05829 38.2859 5.90215 38.0985C5.52741 37.7238 5.52741 37.1617 5.90215 36.7869L9.05621 33.6641C9.43095 33.2894 9.99306 33.2894 10.3678 33.6641C10.7425 34.0389 10.7425 34.601 10.3678 34.9757L7.21374 38.1298C7.02637 38.3171 6.80777 38.3796 6.55794 38.3796Z" fill="#C6C6C6"/>
<path d="M19.7674 36.0063C13.0533 36.0063 7.58838 30.5413 7.58838 23.8272C7.58838 17.1131 13.0533 11.6482 19.7674 11.6482C20.2671 11.6482 20.9541 11.7106 21.1415 11.7106C21.1727 11.7106 21.2039 11.7419 21.2039 11.7731V14.6773C21.2039 14.7086 21.1727 14.7398 21.1415 14.7398C20.9229 14.7086 20.1422 14.6149 19.7674 14.6149C14.6772 14.6149 10.5238 18.7682 10.5238 23.8585C10.5238 28.9487 14.6772 33.102 19.7674 33.102C20.1109 33.102 20.9229 33.0084 21.1415 32.9771C21.1727 32.9771 21.2039 33.0084 21.2039 33.0396V35.8814C21.2039 35.9126 21.1727 35.9438 21.1415 35.9438C20.9541 35.975 20.1422 36.0063 19.7674 36.0063Z" fill="#C6C6C6"/>
<path d="M19.9862 43.6259C19.4553 43.6259 19.0493 43.22 19.0493 42.6891V38.1922C19.0493 37.6613 19.4553 37.2554 19.9862 37.2554C20.517 37.2554 20.923 37.6613 20.923 38.1922V42.6891C20.8918 43.22 20.4858 43.6259 19.9862 43.6259Z" fill="#C6C6C6"/>
<path d="M168.383 34.7884C167.571 34.7884 166.853 34.5385 166.509 34.2887L166.416 34.2263L166.759 33.2269L166.915 33.3206C167.165 33.4768 167.727 33.7266 168.352 33.7266C168.82 33.7266 169.195 33.6017 169.445 33.3519C169.632 33.1333 169.757 32.8522 169.757 32.5712C169.757 31.6655 168.914 31.3532 168.133 31.3532H167.446V30.3539H168.133C168.695 30.3539 169.507 30.0729 169.507 29.3546C169.507 28.7925 169.132 28.4802 168.477 28.4802C167.977 28.4802 167.477 28.6988 167.196 28.9174L167.04 29.0424L166.665 28.0743L166.759 28.0118C167.134 27.762 167.821 27.4497 168.664 27.4497C170.132 27.4497 170.787 28.3553 170.787 29.2297C170.787 29.9167 170.444 30.4789 169.788 30.8224C170.569 31.1034 171.037 31.7904 171.037 32.6024C171.037 33.6329 170.225 34.7884 168.383 34.7884Z" fill="#C6C6C6"/>
<path d="M174.691 28.9799C174.66 28.9799 174.629 28.9799 174.597 28.9799C173.879 28.9487 173.442 28.449 173.38 28.4178C173.223 28.2929 173.036 28.1992 172.88 28.1992C172.599 28.1992 172.411 28.3866 172.38 28.4178C172.193 28.6052 171.849 28.6364 171.631 28.449C171.537 28.3554 171.475 28.2304 171.443 28.0743C171.443 27.9182 171.475 27.7932 171.568 27.6996C171.662 27.6059 172.099 27.1687 172.786 27.1375C172.817 27.1375 172.849 27.1375 172.88 27.1375C173.317 27.1375 173.723 27.3248 174.098 27.6683C174.223 27.7932 174.379 27.9182 174.629 27.9182C174.816 27.9182 175.003 27.8245 175.191 27.6683C175.409 27.481 175.753 27.481 175.94 27.6996C176.128 27.9182 176.128 28.2617 175.909 28.449C175.565 28.7926 175.16 28.9799 174.691 28.9799Z" fill="#C6C6C6"/>
<path d="M48.8411 22.172H32.9459C32.0403 22.172 31.2908 21.4225 31.2908 20.4857V9.61821C31.2908 8.68136 32.0403 7.93188 32.9459 7.93188H48.8411C49.7467 7.93188 50.4962 8.68136 50.4962 9.61821V20.4857C50.4962 21.485 49.8404 22.172 48.8411 22.172ZM32.9459 9.02488C32.6336 9.02488 32.3838 9.2747 32.3838 9.61821V20.4857C32.3838 20.798 32.6336 21.079 32.9459 21.079H48.8411C49.1221 21.079 49.4032 21.0165 49.4032 20.4857V9.61821C49.4032 9.30593 49.1534 9.02488 48.8411 9.02488H32.9459Z" fill="#C6C6C6"/>
<path d="M93.4663 22.172H77.5711C76.6655 22.172 75.916 21.4225 75.916 20.4857V9.61821C75.916 8.68136 76.6655 7.93188 77.5711 7.93188H93.4663C94.3719 7.93188 95.1214 8.68136 95.1214 9.61821V20.4857C95.1214 21.485 94.4969 22.172 93.4663 22.172ZM77.5711 9.02488C77.2588 9.02488 77.009 9.2747 77.009 9.61821V20.4857C77.009 20.798 77.2588 21.079 77.5711 21.079H93.4663C93.7474 21.079 94.0284 21.0165 94.0284 20.4857V9.61821C94.0284 9.30593 93.7786 9.02488 93.4663 9.02488H77.5711Z" fill="#C6C6C6"/>
<path d="M71.1692 22.172H55.274C54.3684 22.172 53.6189 21.4225 53.6189 20.4857V9.61821C53.6189 8.68136 54.3684 7.93188 55.274 7.93188H71.1692C72.0748 7.93188 72.8243 8.68136 72.8243 9.61821V20.4857C72.8243 21.485 72.1685 22.172 71.1692 22.172ZM55.2428 9.02488C54.9305 9.02488 54.6807 9.2747 54.6807 9.61821V20.4857C54.6807 20.798 54.9305 21.079 55.2428 21.079H71.138C71.419 21.079 71.7001 21.0165 71.7001 20.4857V9.61821C71.7001 9.30593 71.4503 9.02488 71.138 9.02488H55.2428Z" fill="#C6C6C6"/>
<path d="M48.8411 39.4725H32.9459C32.0403 39.4725 31.2908 38.7231 31.2908 37.7862V26.9187C31.2908 25.9819 32.0403 25.2324 32.9459 25.2324H48.8411C49.7467 25.2324 50.4962 25.9819 50.4962 26.9187V37.7862C50.4962 38.8167 49.8404 39.4725 48.8411 39.4725ZM32.9459 26.3254C32.6336 26.3254 32.3838 26.5752 32.3838 26.9187V37.7862C32.3838 38.0985 32.6336 38.3795 32.9459 38.3795H48.8411C49.1221 38.3795 49.4032 38.3171 49.4032 37.7862V26.9187C49.4032 26.6065 49.1534 26.3254 48.8411 26.3254H32.9459Z" fill="#C6C6C6"/>
<path d="M93.4663 39.4725H77.5711C76.6655 39.4725 75.916 38.7231 75.916 37.7862V26.9187C75.916 25.9819 76.6655 25.2324 77.5711 25.2324H93.4663C94.3719 25.2324 95.1214 25.9819 95.1214 26.9187V37.7862C95.1214 38.8167 94.4969 39.4725 93.4663 39.4725ZM77.5711 26.3254C77.2588 26.3254 77.009 26.5752 77.009 26.9187V37.7862C77.009 38.0985 77.2588 38.3795 77.5711 38.3795H93.4663C93.7474 38.3795 94.0284 38.3171 94.0284 37.7862V26.9187C94.0284 26.6065 93.7786 26.3254 93.4663 26.3254H77.5711Z" fill="#C6C6C6"/>
<path d="M71.1692 39.4725H55.274C54.3684 39.4725 53.6189 38.7231 53.6189 37.7862V26.9187C53.6189 25.9819 54.3684 25.2324 55.274 25.2324H71.1692C72.0748 25.2324 72.8243 25.9819 72.8243 26.9187V37.7862C72.8243 38.8167 72.1685 39.4725 71.1692 39.4725ZM55.2428 26.3254C54.9305 26.3254 54.6807 26.5752 54.6807 26.9187V37.7862C54.6807 38.0985 54.9305 38.3795 55.2428 38.3795H71.138C71.419 38.3795 71.7001 38.3171 71.7001 37.7862V26.9187C71.7001 26.6065 71.4503 26.3254 71.138 26.3254H55.2428Z" fill="#C6C6C6"/>
<path d="M98.7143 4.53467C98.095 4.53467 97.7853 4.84636 97.4756 5.15804L77.6562 25.1061C76.7272 26.0412 76.7272 26.6645 77.6562 27.5996L97.4756 47.5477C97.7853 47.8593 98.095 48.171 98.7143 48.171C99.3337 48.171 99.6433 47.8593 99.953 47.5477L119.772 27.5996C120.392 26.9762 120.701 26.0412 119.772 25.1061L99.953 5.15804C99.6433 4.84636 99.3337 4.53467 98.7143 4.53467Z" fill="#C6C6C6"/>
<path d="M98.7143 6.09311L118.534 26.3529L98.7143 46.3009L78.5853 26.3529L98.7143 6.09311ZM98.7143 4.53467C98.095 4.53467 97.7853 4.84636 97.4756 5.15804L77.6562 25.1061C76.7272 26.0412 76.7272 26.6645 77.6562 27.5996L97.4756 47.5477C97.7853 47.8593 98.095 48.171 98.7143 48.171C99.3337 48.171 99.6433 47.8593 99.953 47.5477L119.772 27.5996C120.392 26.9762 120.701 26.0412 119.772 25.1061L99.953 5.15804C99.6433 4.84636 99.3337 4.53467 98.7143 4.53467Z" fill="#ED192E"/>
<path d="M95.3078 31.3401H93.1401L87.8755 22.9245V31.6518H86.3271V20.7427H88.4949L93.7594 29.1583V20.7427H95.3078V31.3401Z" fill="#ED192E"/>
<path d="M102.43 20.7427L98.4043 31.3401H96.856L100.882 20.7427H102.43Z" fill="#ED192E"/>
<path d="M104.289 26.0413C104.289 31.0283 108.934 30.0932 110.482 29.7815V31.34C108.934 31.6517 102.74 32.5867 102.74 26.0413C102.74 20.7426 108.005 19.8075 111.102 21.366L110.482 22.6127C108.005 21.6776 104.289 21.9893 104.289 26.0413Z" fill="#ED192E"/>
</svg>
