<svg width="52" height="191" viewBox="0 0 52 191" fill="none" xmlns="http://www.w3.org/2000/svg">
<g clip-path="url(#clip0_10853_18875)">
<path d="M41.9307 178.754C41.656 177.589 41.1844 176.484 40.5357 175.439C40.6555 175.202 40.7855 174.916 40.8568 174.612C41.4443 174.783 42.1582 175.081 42.8232 175.37C43.9087 175.842 45.0719 176.411 46.3424 175.9C47.2389 175.509 47.834 174.778 48.2865 173.508L48.3167 173.419C49.1501 171.223 48.486 167.372 46.4811 165.367C46.4811 165.367 46.1308 165.016 45.7891 164.794C44.6867 164.008 42.2892 163.155 38.9685 165.833C38.0099 166.597 37.2168 167.527 36.5702 168.543C36.0305 168.518 35.4899 168.611 34.9486 168.783C34.8231 168.538 34.7566 168.274 34.6999 168.019C34.6053 167.608 34.521 167.127 34.4561 166.686C34.3364 165.755 34.2083 164.657 33.4395 163.888C33.4297 163.878 33.4103 163.859 33.4005 163.849C32.5827 163.071 31.2098 162.925 29.8425 163.28C27.5895 163.898 24.2341 167.195 24.1478 170.416C24.1451 171.878 24.6865 172.855 25.4454 173.634C25.4552 173.643 25.4649 173.653 25.4746 173.663C26.2532 174.441 27.288 175.1 28.698 175.5C29.8632 175.834 31.1389 175.862 32.3073 175.823C32.4717 176.106 32.6657 176.379 33.0161 176.73C33.0647 176.778 33.1037 176.817 33.1523 176.866C32.9639 177.093 32.4486 177.667 31.6179 178.4C30.6984 179.184 29.6808 179.968 29.5904 181.362C29.5563 181.902 29.7532 182.99 30.9405 184.178C30.9503 184.187 30.9503 184.187 30.96 184.197C32.5366 185.774 37.1102 186.962 39.9115 185.348C41.1248 184.64 42.9755 182.848 41.9307 178.754ZM39.3697 184.43C37.1208 185.725 33.0363 184.729 31.7419 183.435L31.7224 183.415C30.6519 182.345 30.6686 181.53 30.6792 181.441C30.7253 180.636 31.3285 180.111 32.0898 179.466L32.1195 179.437L32.1294 179.427L32.1393 179.417C32.1591 179.397 32.1789 179.377 32.1987 179.357C32.2284 179.328 32.2777 179.298 32.3074 179.268C33.2171 178.475 33.7425 177.872 33.9111 177.664L33.9507 177.625C34.3177 177.18 34.2936 176.542 33.8849 176.133L33.8654 176.114L33.7486 175.997C33.4664 175.715 33.3306 175.52 33.2048 175.315L33.195 175.305L33.1853 175.295C33.1368 175.227 33.0883 175.159 33.0202 175.091C32.8158 174.886 32.5223 174.771 32.1985 174.764C31.3345 174.791 30.0585 174.802 28.9326 174.468C27.8358 174.163 26.9274 173.651 26.1877 172.911L26.1683 172.891C25.5065 172.23 25.1891 171.457 25.178 170.456C25.2178 169.248 25.8379 167.888 26.9382 166.613C27.88 165.515 29.1045 164.641 30.0294 164.378C31.082 164.104 32.0723 164.223 32.5494 164.681L32.5786 164.71C33.0749 165.206 33.1758 166.04 33.2671 166.844L33.2766 166.873L33.2862 166.902L33.2958 166.932L33.3053 166.961C33.3611 167.334 33.5967 168.48 33.6062 168.509C33.6729 168.754 33.7491 169.028 33.8937 169.331C33.9419 169.439 34.0196 169.536 34.0974 169.614C34.3699 169.887 34.8008 170.001 35.2042 169.89C35.6765 169.748 36.0796 169.676 36.4425 169.702C36.8546 169.718 37.2392 169.509 37.4481 169.183C38.0451 168.236 38.7587 167.425 39.5889 166.751C42.3858 164.499 44.2058 165.151 45.0448 165.752C45.074 165.781 45.1228 165.81 45.1621 165.81C45.3574 165.926 45.5717 166.121 45.6496 166.198C47.3235 167.872 47.9027 171.322 47.2695 173.065C47.2594 173.095 47.2494 173.124 47.249 173.163L47.239 173.193C46.9071 174.128 46.5101 174.642 45.9287 174.912C45.1507 175.223 44.3978 174.886 43.4395 174.462L43.2635 174.385C42.5985 174.096 41.8357 173.769 41.1503 173.579C40.8564 173.502 40.542 173.544 40.2855 173.704C40.0093 173.863 39.8304 174.12 39.7593 174.405C39.7185 174.582 39.6284 174.789 39.5187 174.996L39.5088 175.006L39.4989 175.016C39.3289 175.38 39.3549 175.783 39.5585 176.085C40.1299 176.993 40.5339 177.952 40.7808 178.931L40.7709 178.941L40.8088 179.098C41.6747 182.3 40.5041 183.762 39.3697 184.43Z" fill="#1976D2"/>
<path d="M38.5321 172.109C38.4061 171.924 38.2801 171.739 38.1244 171.583C37.375 170.833 36.1303 170.618 35.1539 171.166C33.9114 171.844 33.486 173.399 34.1434 174.571C34.2694 174.757 34.3955 174.942 34.5512 175.098C35.3006 175.847 36.5453 176.062 37.5216 175.514C38.7641 174.836 39.1896 173.282 38.5321 172.109ZM37.0875 174.625C36.4858 174.973 35.7212 174.862 35.254 174.395C35.1567 174.298 35.0691 174.21 35.0015 174.083C34.5954 173.36 34.8489 172.406 35.6276 172.016C36.2293 171.668 36.994 171.779 37.4611 172.246C37.5584 172.343 37.646 172.431 37.7137 172.558C38.1197 173.281 37.8563 174.245 37.0875 174.625Z" fill="#1976D2"/>
</g>
<path d="M36.8535 161.898V105.898" stroke="#1976D2" stroke-width="2"/>
<path d="M9.85352 109.398L9.85352 104.398" stroke="#1976D2" stroke-width="2"/>
<path d="M36.8535 89.3984L36.8535 94.3984" stroke="#1976D2" stroke-width="2"/>
<path d="M36.8535 76.3984L36.8535 67.3984" stroke="#1976D2" stroke-width="2"/>
<path d="M9.85352 122.398L9.85352 132.398" stroke="#1976D2" stroke-width="2"/>
<path d="M0.853516 112.398H18.8535" stroke="#1976D2" stroke-width="2"/>
<path d="M45.8535 86.3984L27.8535 86.3984" stroke="#1976D2" stroke-width="2"/>
<path d="M27.8535 79.3984L45.8535 79.3984" stroke="#1976D2" stroke-width="2"/>
<path d="M18.8535 119.898L0.853516 119.898" stroke="#1976D2" stroke-width="2"/>
<path d="M0.853516 99.3985L46.3535 99.3984" stroke="#1976D2" stroke-width="8"/>
<path d="M7.85352 134.898H11.8535C15.4434 134.898 18.3535 137.809 18.3535 141.398V154.398C18.3535 157.988 15.4434 160.898 11.8535 160.898H7.85352C4.26366 160.898 1.35352 157.988 1.35352 154.398V141.398L1.3623 141.063C1.53664 137.629 4.37601 134.898 7.85352 134.898Z" fill="#C6C6C6" fill-opacity="0.2" stroke="#1976D2"/>
<rect x="21.3535" y="0.898438" width="30" height="64" rx="7.5" fill="#C6C6C6" fill-opacity="0.2" stroke="#1976D2"/>
<defs>
<clipPath id="clip0_10853_18875">
<rect width="29" height="28" fill="white" transform="translate(20.8535 162.398)"/>
</clipPath>
</defs>
</svg>
